HIERARCHY
ROOT Hips
{
  OFFSET 90.7885 88.945 -76.2838
  CHANNELS 6 Xposition Yposition Zposition Zrotation Xrotation Yrotation
  JOINT LeftUpLeg
  {
    OFFSET 8.64259 1.95398 -2.38835
    CHANNELS 3 Zrotation Xrotation Yrotation
    JOINT LeftLeg
    {
      OFFSET 43.7702 0 0
      CHANNELS 3 Zrotation Xrotation Yrotation
      JOINT LeftFoot
      {
        OFFSET 40.6238 0 0
        CHANNELS 3 Zrotation Xrotation Yrotation
        JOINT LeftToeBase
        {
          OFFSET 12.7242 0 0
          CHANNELS 3 Zrotation Xrotation Yrotation
          End Site
          {
            OFFSET 0 0 0
          }
        }
      }
    }
  }
  JOINT RightUpLeg
  {
    OFFSET -8.2249 1.95398 -2.59336
    CHANNELS 3 Zrotation Xrotation Yrotation
    JOINT RightLeg
    {
      OFFSET 43.5653 0 0
      CHANNELS 3 Zrotation Xrotation Yrotation
      JOINT RightFoot
      {
        OFFSET 40.6238 0 0
        CHANNELS 3 Zrotation Xrotation Yrotation
        JOINT RightToeBase
        {
          OFFSET 12.7242 0 0
          CHANNELS 3 Zrotation Xrotation Yrotation
          End Site
          {
            OFFSET 0 0 0
          }
        }
      }
    }
  }
  JOINT Spine
  {
    OFFSET 0.165834 0.87714 6.61349
    CHANNELS 3 Zrotation Xrotation Yrotation
    JOINT Spine1
    {
      OFFSET 7.38963 1.71661e-005 0
      CHANNELS 3 Zrotation Xrotation Yrotation
      JOINT Spine2
      {
        OFFSET 11.9445 1.14441e-005 0
        CHANNELS 3 Zrotation Xrotation Yrotation
        JOINT Spine3
        {
          OFFSET 14.7254 4.19617e-005 0
          CHANNELS 3 Zrotation Xrotation Yrotation
          JOINT Spine4
          {
            OFFSET 10.9679 0 0
            CHANNELS 3 Zrotation Xrotation Yrotation
            JOINT RightShoulder
            {
              OFFSET 2.46616 -1.6653 3.69651
              CHANNELS 3 Zrotation Xrotation Yrotation
              JOINT RightArm
              {
                OFFSET 13.0012 0 0
                CHANNELS 3 Zrotation Xrotation Yrotation
                JOINT RightForeArm
                {
                  OFFSET 28.7848 1.52588e-005 0
                  CHANNELS 3 Zrotation Xrotation Yrotation
                  JOINT RightHand
                  {
                    OFFSET 26.5688 1.52588e-005 0
                    CHANNELS 3 Zrotation Xrotation Yrotation
                    End Site
                    {
                      OFFSET 0 0 0
                    }
                  }
                }
              }
            }
            JOINT LeftShoulder
            {
              OFFSET 2.38034 -1.29275 -3.7523
              CHANNELS 3 Zrotation Xrotation Yrotation
              JOINT LeftArm
              {
                OFFSET 16.3182 6.10352e-005 0
                CHANNELS 3 Zrotation Xrotation Yrotation
                JOINT LeftForeArm
                {
                  OFFSET 27.0901 0 0
                  CHANNELS 3 Zrotation Xrotation Yrotation
                  JOINT LeftHand
                  {
                    OFFSET 24.5451 1.52588e-005 0
                    CHANNELS 3 Zrotation Xrotation Yrotation
                    End Site
                    {
                      OFFSET 0 0 0
                    }
                  }
                }
              }
            }
            JOINT Neck
            {
              OFFSET 5.0226 -0.0266342 0
              CHANNELS 3 Zrotation Xrotation Yrotation
              JOINT Head
              {
                OFFSET 6.69363 2.86102e-005 0
                CHANNELS 3 Zrotation Xrotation Yrotation
                End Site
                {
                  OFFSET 0 0 0
                }
              }
            }
          }
        }
      }
    }
  }
}
MOTION
Frames:	18
Frame Time:	0.0416667
-306.853 89.7079 297.204 -102.176 -41.7439 -98.629 -172.044 6.07482 93.9175 -43.3029 18.682 -2.99892 87.2752 11.33 -1.37231 13.9682 2.46005 -0.512458 175.462 19.933 87.8444 -18.1427 -11.7704 -1.40695 52.1271 0.760989 1.66977 23.553 0.181586 0.746777 0.863015 8.50875 -90.4814 9.86299 1.50185 -1.07612 -1.80759 1.45302 -1.14118 -24.3484 1.75581 -0.574908 -4.33576 1.7558 -0.57492 91.1353 -29.2634 -104.763 37.4933 -8.11228 -0.604517 4.12089 -8.10475 -13.4789 -23.1486 0.138023 -7.74628 -90.3231 -53.8783 79.0675 -13.523 7.95603 -33.9377 12.2843 12.2889 -19.8456 0.718335 -0.262213 -10.7276 3.1461 -1.03469 -8.03466 -4.95394 0.324421 -0.155255 
-303.794 91.4672 295.373 -105.668 -41.226 -101.654 -173.146 2.54114 92.2968 -36.5954 17.9352 -2.96087 82.0141 9.45207 -0.474039 14.0861 2.80927 -0.922113 171.627 18.2704 87.1831 -27.9496 0.681345 0.165838 58.7392 -1.68003 -0.592322 22.7813 -0.384502 2.06524 0.461974 8.39 -89.921 10.0918 0.956494 0.0773845 -1.57885 0.958979 0.0351986 -24.1163 0.889007 0.361293 -4.10368 0.889038 0.361298 89.0521 -32.4577 -107.667 36.3353 -10.0094 -2.25293 3.83704 -11.0239 -14.3395 -24.8906 0.223725 -8.73434 -87.1575 -48.859 82.7938 -14.4972 5.94759 -24.9521 13.4594 5.59589 -29.6868 5.33072 -0.377352 -8.51038 -3.90323 0.0950958 -11.5001 -3.21573 1.30903 2.23347 
-300.991 92.7224 293.974 -108.456 -41.3 -103.978 -175.08 0.0952069 90.0778 -31.5349 16.7734 -1.78317 78.5245 8.11823 0.648142 11.4808 2.96339 -0.622518 168.885 14.6674 84.4519 -46.6367 -1.92929 0.365133 64.843 -3.7157 -0.103771 25.1032 -0.620362 2.12238 0.366024 8.27219 -90.0798 10.3324 0.692798 -0.213974 -1.33836 0.682701 -0.244256 -23.8752 0.725054 0.00413968 -3.86259 0.725067 0.00414572 91.004 -29.4667 -104.924 35.3174 -12.7588 -5.19171 2.54668 -21.4046 -16.9645 -23.8753 -0.301827 -9.05891 -86.9063 -51.372 83.581 -15.6146 6.57551 -14.3161 9.99529 -0.220069 -29.5828 6.07869 -0.470945 -9.55822 -10.7261 0.339708 -4.99971 -2.65592 0.619134 -0.726424 
-298.596 93.1479 292.001 -108.757 -41.7219 -104.857 -175.758 0.544225 88.7492 -28.9588 17.0735 -1.61365 75.2004 6.84553 0.808972 11.1697 2.05088 0.407681 167.633 6.83805 81.1035 -59.0136 -6.39786 -0.959024 65.9859 -3.95825 -0.417761 24.9645 -0.340877 1.5749 0.448195 7.96544 -90.1142 10.9444 0.839518 -0.308257 -0.726289 0.825125 -0.344915 -23.2637 0.893333 -0.0416721 -3.25109 0.893323 -0.0416824 89.5291 -27.1304 -108.869 34.1584 -10.9489 -4.91576 1.21671 -21.2469 -18.2449 -25.411 -0.386189 -8.37636 -85.2845 -54.8307 86.4344 -16.571 10.9697 -3.31612 6.93872 -2.96544 -26.6824 3.83432 -0.319972 -8.54493 -14.8954 0.179177 -1.49763 -3.85873 0.241307 -3.29543 
-295.883 93.0994 289.344 -110.001 -40.7994 -106.853 -176.178 1.57603 87.617 -27.7843 16.1773 -1.89563 72.1553 5.66845 0.788159 11.0332 1.97427 0.51205 166.437 -5.73102 77.026 -55.9522 -14.0546 -3.36653 65.8056 -3.7632 -0.409385 25.2688 -0.890887 2.71366 0.874985 7.98372 -89.9931 10.9085 1.7453 -0.150841 -0.761257 1.73695 -0.227536 -23.3055 1.70992 0.380824 -3.29291 1.70992 0.380815 89.0193 -25.059 -110.885 32.4868 -10.593 -6.4571 2.36445 -21.5497 -17.1938 -24.8375 -0.329344 -8.80413 -84.1907 -59.1533 88.4371 -16.9042 14.0665 5.0369 3.02264 -7.70425 -17.8624 2.89531 -0.221121 -7.20793 -15.8114 -1.13088 -0.746469 -4.41662 -1.04185 -4.77738 
-291.397 92.315 282.505 -103.295 -40.8779 -98.9576 -174.605 13.1895 92.7914 -29.1686 18.1527 -2.19942 68.2549 4.05767 0.909709 9.85332 1.56219 1.12515 170.654 -10.1716 84.2678 -42.8015 -18.8845 -4.3156 68.6204 -4.88483 -1.56746 29.1913 -1.23554 3.10324 1.30151 7.47288 -90.3116 11.9442 2.44169 -0.873247 0.275161 2.40089 -0.979917 -22.2782 2.59123 -0.0985917 -2.26555 2.59124 -0.0985908 89.6603 -24.4919 -109.787 30.1755 -9.67151 -10.9532 1.61529 -24.7496 -17.453 -24.2924 -0.568521 -8.82359 -84.3985 -63.5886 88.5856 -17.411 20.3421 9.89434 -2.03304 -25.1803 -3.90893 2.83059 -0.129768 -4.93099 -14.0984 -2.14254 0.614049 -5.3318 -1.98374 -6.6519 
-285.748 92.0658 277.357 -104.355 -35.6954 -101.206 -176.431 11.2033 89.7369 -19.4894 11.2643 -1.68317 60.0539 1.03565 -0.834658 11.49 0.19191 2.38712 167.4 -13.7506 78.9295 -31.4787 -28.0595 -6.53854 75.8618 -8.66582 -3.77482 38.8734 -2.85075 5.76451 1.62477 8.10132 -90.0714 10.6812 3.20269 -0.439347 -0.985899 3.18025 -0.580028 -23.5528 3.1865 0.54453 -3.54012 3.1865 0.544526 89.8364 -24.9132 -109.215 26.7128 -8.69782 -15.8784 -0.332673 -24.3752 -21.3821 -32.4122 -0.974074 -6.14274 -85.1849 -63.4814 87.5497 -23.8829 13.4956 12.7385 2.04753 -22.683 0.39652 -2.87386 -0.0917791 -2.91633 -9.17528 -1.3363 3.01887 -5.53697 -1.35144 -5.59332 
-279.631 92.0237 269.41 -102.616 -40.4388 -97.0767 -175.767 15.771 93.9305 -13.6349 6.66235 -1.93182 58.6495 0.936714 -1.78641 12.0598 -3.1024 5.8842 169.636 -9.44685 86.1694 -27.155 -21.8291 -2.56952 81.3117 -10.8787 -2.61687 28.0879 -1.97637 4.74264 1.03252 8.30628 -90.4707 10.2703 1.84195 -1.09891 -1.39999 1.79179 -1.17893 -23.944 2.08705 -0.494365 -3.9313 2.08705 -0.494371 89.6044 -27.8311 -108.432 23.5193 -7.59604 -15.6165 -4.19229 -25.1605 -27.8383 -35.2393 -0.756585 -7.29913 -87.0309 -59.573 84.623 -25.7193 17.9499 7.09489 0.62719 -14.0013 -0.262177 -4.10926 -0.11273 -2.57144 -3.88481 -0.615308 1.66932 -5.76351 -0.703251 -2.28932 
-274.54 93.2968 263.786 -106.833 -42.6608 -104.993 -174.142 14.4753 89.6113 -25.7207 -10.3787 -4.32812 62.5068 2.70322 -1.49488 14.0779 -0.271138 2.54796 167.991 -5.29232 82.4218 -30.4042 -20.9032 -2.99792 79.8098 -9.99661 -2.8396 25.5067 -1.4378 3.87065 0.595551 8.81995 -89.9798 9.23452 1.19682 -0.0465362 -2.43588 1.1936 -0.0991707 -24.9753 1.15545 0.315367 -4.96259 1.15546 0.315355 89.8876 -29.3721 -107.226 26.9745 -7.47114 -9.46626 -0.798792 -24.3571 -23.3877 -36.8389 -0.962009 -6.27357 -88.3123 -55.4177 82.2149 -19.685 20.5533 -5.94029 0.14913 -6.14701 0.000215345 0.779525 -0.0873465 -4.25464 -5.2772 -0.811015 -2.37118 -6.7176 -0.566432 -0.48093 
-271.14 93.8759 259.201 -102.609 -44.8727 -101.603 -170.127 17.3018 92.537 -46.1368 2.91054 -3.96482 68.8921 4.70445 -0.426442 13.7811 -0.696729 3.06372 171.119 0.986483 86.1855 -30.2434 -16.8861 -3.1608 76.5063 -7.84336 -1.7339 23.8696 -0.922406 3.00115 0.322737 8.27885 -90.0724 10.3166 0.609863 -0.197187 -1.35428 0.600591 -0.223849 -23.8906 0.640942 -0.00477249 -3.87792 0.640938 -0.00477759 90.6401 -28.5105 -106.045 36.0229 -8.46121 -0.965268 3.88751 -15.8513 -15.512 -27.7499 -0.00290619 -8.42164 -88.1352 -53.2805 82.1047 -14.6319 16.1042 -13.9288 2.69376 -5.06906 -7.13323 4.10359 -0.124904 -5.02409 -10.2657 -0.0825961 -2.12326 -6.69274 0.0210803 0.293083 
-267.66 94.0921 256.108 -102.816 -44.9581 -101.619 -169.545 7.95265 95.9493 -54.8919 9.323 -0.63653 70.4717 5.49948 0.987218 13.269 0.2512 2.07436 171.599 4.29798 86.5166 -30.1362 -17.4042 -3.09158 74.0959 -6.87533 -2.06774 22.8697 -0.806684 2.91435 -0.0298079 8.0675 -90.21 10.7393 -0.156113 -0.403509 -0.931651 -0.173728 -0.396245 -23.4664 -0.0276459 -0.431769 -3.45374 -0.0276336 -0.431774 91.6172 -28.7045 -103.984 41.4042 -10.382 6.2461 7.53749 -15.0376 -8.65684 -25.3343 -0.213587 -7.58134 -88.2333 -52.3518 81.7992 -14.2565 9.28742 -18.4374 6.06605 -3.89689 -15.6545 4.7049 -0.275287 -7.27152 -13.5403 1.2473 0.96282 -7.4714 1.1581 1.60077 
-263.701 94.0837 253.099 -102.834 -45.7983 -100.784 -170.211 -2.16969 98.6278 -51.9063 11.9036 2.08303 68.4156 4.6568 0.700437 14.3582 2.74229 -0.914974 172.466 7.27978 87.3433 -29.2172 -16.3982 -2.74927 70.6458 -5.47113 -1.5648 22.6098 -0.654511 2.64377 -0.524324 7.9687 -90.4184 10.9327 -1.23741 -0.715053 -0.737803 -1.26768 -0.659904 -23.2745 -0.965314 -1.05389 -3.2619 -0.965314 -1.0539 92.3964 -28.2465 -102.543 45.1107 -8.29178 11.966 7.85459 -16.3332 -7.90925 -22.9179 -0.436507 -6.91891 -87.9929 -50.8608 81.8889 -17.4779 3.87265 -24.6923 9.95938 0.707492 -19.0247 3.34831 -0.32644 -9.21927 -15.3247 2.92648 2.54138 -8.16684 2.79915 2.7295 
-258.401 93.7729 249.544 -101.614 -48.493 -99.8402 -170.465 -8.26155 99.794 -42.0996 17.9115 3.14165 68.3023 4.42397 -1.57722 16.1129 0.841699 0.98732 173.109 12.1134 87.2553 -28.0063 -14.9491 -2.63602 66.0117 -3.37096 -1.61789 22.0856 -0.616948 2.6498 -1.10392 7.84142 -90.4745 11.1848 -2.41761 -0.707679 -0.484065 -2.44639 -0.600545 -23.032 -2.09313 -1.4018 -3.01937 -2.09313 -1.40181 92.0573 -28.546 -103.139 47.226 -4.05692 14.6537 6.0884 -13.436 -9.55088 -22.0993 -0.390206 -6.39639 -87.1519 -48.9344 82.8183 -18.8787 3.82349 -29.6427 13.6772 8.4208 -22.2448 2.09032 -0.286356 -9.39247 -15.3036 3.72726 3.12142 -9.03781 3.5846 2.73737 
-251.083 92.7564 244.792 -100.831 -49.726 -99.8014 -170.107 -9.57055 99.1601 -32.8455 21.3026 1.36538 74.4288 7.11662 0.374014 34.2764 -0.262569 -0.601455 173.52 18.1804 85.8776 -26.7697 -15.1554 -2.97574 59.3529 -0.133565 -0.6862 22.8556 -0.879056 3.07772 -1.09535 7.94009 -90.4137 10.988 -2.37216 -0.597582 -0.680867 -2.39616 -0.492539 -23.2289 -2.08288 -1.28314 -3.21626 -2.08285 -1.28312 92.3906 -28.9885 -102.317 48.5852 -3.49892 12.8027 5.25998 -12.207 -11.9388 -22.5746 0.201327 -9.38003 -88.0682 -48.3555 81.3157 -17.9139 5.59496 -33.7124 15.8296 14.3193 -23.5465 3.92062 -0.318985 -8.51704 -14.4153 2.65826 1.78734 -6.20006 2.54705 3.44788 
-242.658 91.6394 239.46 -101.582 -47.3018 -102.355 -171.314 -8.05594 94.4861 -31.813 15.7727 -1.64646 84.1167 10.7953 -0.907971 28.6497 -1.54705 2.06562 172.788 21.3908 83.0266 -20.4878 -18.8925 -2.95202 55.7745 1.24821 -1.07391 26.4397 -1.2726 3.31907 -0.677065 8.29871 -90.0033 10.2871 -1.35019 0.121512 -1.38306 -1.34351 0.18082 -23.9245 -1.32431 -0.289974 -3.91187 -1.32429 -0.289965 92.2754 -31.5905 -101.728 44.797 -6.1273 7.69572 3.6477 -17.1473 -15.4294 -23.1054 0.175641 -10.5709 -88.7003 -48.1702 80.3138 -17.6549 6.69251 -34.2465 14.7032 14.8785 -21.3404 3.56154 -0.277992 -7.95071 -10.5083 1.82128 -3.26486 -6.36228 1.81144 4.48274 
-235.287 92.2849 234.934 -101.507 -40.5585 -102.554 -174.173 -3.843 90.1029 -33.5674 6.8259 -3.21642 84.9416 10.0399 -2.3564 19.31 -3.75611 6.22322 170.838 17.9521 83.3104 -8.56629 -9.6847 -1.06299 62.5974 -3.85062 -1.49938 24.5102 -0.518035 2.04266 0.00460714 8.57827 -89.6928 9.71514 0.148168 0.596274 -1.95598 0.174269 0.589171 -24.4895 -0.0378748 0.613241 -4.47689 -0.0378921 0.613233 91.1522 -31.9809 -103.797 40.1882 -8.19051 0.777505 3.85201 -18.2684 -15.6131 -24.0641 -0.196746 -8.67292 -88.4267 -49.092 80.9113 -16.5399 10.2622 -28.9615 8.13075 9.46312 -10.3167 0.207052 -0.150651 -7.21673 -10.4998 1.83865 -3.82075 -5.37285 1.9317 3.33813 
-229.546 93.9241 230.891 -99.5533 -36.4773 -98.8803 -175.726 0.0808796 89.1486 -30.535 2.09447 -2.399 81.6013 8.31271 -1.68982 15.9917 -4.64628 7.44885 169.952 22.435 85.4667 -25.6689 -3.16042 0.730455 65.1769 -3.93308 -0.747002 22.2126 0.27411 0.825326 0.450742 8.4799 -89.784 9.91264 0.99646 0.3478 -1.75796 1.01083 0.303595 -24.2951 0.845881 0.631214 -4.28244 0.845868 0.631209 89.6856 -30.775 -107.081 36.8583 -9.9708 -5.12556 4.46388 -15.916 -13.6683 -24.8948 -0.100828 -8.37681 -88.0619 -50.7042 81.7585 -17.3889 16.3876 -18.6299 2.36556 -0.79806 0.00353233 0.857317 -0.124536 -5.5763 -11.3276 2.01998 -2.97063 -4.79734 2.1019 2.0102 
-225.654 94.819 227.381 -99.0617 -35.1287 -96.8627 -176.199 3.31215 90.4655 -29.5011 3.97454 -1.33733 77.1525 6.39706 0.33285 16.7639 -5.77459 8.7698 170.908 20.477 85.1823 -45.4989 -13.2649 -0.436851 66.6459 -4.31862 -3.15877 23.2474 -1.64007 4.57992 0.824504 8.32343 -89.8628 10.227 1.70552 0.126756 -1.44283 1.70945 0.0515461 -23.986 1.58855 0.633593 -3.97338 1.58856 0.633605 89.6348 -29.1369 -107.825 36.4814 -10.0072 -7.56204 2.33409 -19.186 -18.1904 -27.5285 -0.372422 -7.63151 -88.2013 -53.0784 81.9734 -19.3181 22.8287 -3.77655 1.40811 12.6781 -6.80843 0.745786 -0.00288088 -1.82798 -11.7572 1.43974 -3.12629 -4.22745 1.56561 -0.144756 
